<svg width="36" height="24" viewBox="0 0 36 24" fill="none" xmlns="http://www.w3.org/2000/svg">
<path d="M34.4297 12.2969C34.4297 13.8698 34.1042 15.0729 33.4531 15.9062C32.8021 16.7396 31.849 17.1562 30.5938 17.1562C29.3542 17.1562 28.4062 16.7474 27.75 15.9297C27.0938 15.112 26.7578 13.9401 26.7422 12.4141V10.3203C26.7422 8.73177 27.0703 7.52604 27.7266 6.70312C28.388 5.88021 29.3385 5.46875 30.5781 5.46875C31.8177 5.46875 32.7656 5.8776 33.4219 6.69531C34.0781 7.50781 34.4141 8.67708 34.4297 10.2031V12.2969ZM32.1719 10C32.1719 9.05729 32.0417 8.3724 31.7812 7.94531C31.526 7.51302 31.125 7.29688 30.5781 7.29688C30.0469 7.29688 29.6536 7.5026 29.3984 7.91406C29.1484 8.32031 29.0156 8.95833 29 9.82812V12.5938C29 13.5208 29.125 14.2109 29.375 14.6641C29.6302 15.112 30.0365 15.3359 30.5938 15.3359C31.1458 15.3359 31.5443 15.1198 31.7891 14.6875C32.0339 14.2552 32.1615 13.5938 32.1719 12.7031V10Z" fill="#9093A6"/>
<path d="M15.55 13C16.3 13 16.96 12.59 17.3 11.97L20.88 5.48C21.25 4.82 20.77 4 20.01 4H5.21L4.27 2H1V4H3L6.6 11.59L5.25 14.03C4.52 15.37 5.48 17 7 17H19V15H7L8.1 13H15.55ZM6.16 6H18.31L15.55 11H8.53L6.16 6ZM7 18C5.9 18 5.01 18.9 5.01 20C5.01 21.1 5.9 22 7 22C8.1 22 9 21.1 9 20C9 18.9 8.1 18 7 18ZM17 18C15.9 18 15.01 18.9 15.01 20C15.01 21.1 15.9 22 17 22C18.1 22 19 21.1 19 20C19 18.9 18.1 18 17 18Z" fill="#9093A6"/>
</svg>
