<svg width="33" height="33" viewBox="0 0 33 33" fill="none" xmlns="http://www.w3.org/2000/svg">
<path fill-rule="evenodd" clip-rule="evenodd" d="M16.339 4.20868C20.269 4.20868 20.7304 4.22603 22.2837 4.29542C23.7202 4.35903 24.4969 4.59613 25.0166 4.79853C25.7057 5.06454 26.1962 5.37682 26.7101 5.88571C27.224 6.39461 27.5451 6.88037 27.8079 7.56275C28.0065 8.07742 28.2517 8.84655 28.316 10.2691C28.386 11.8074 28.4036 12.2642 28.4036 16.1561C28.4036 20.048 28.386 20.5048 28.316 22.0431C28.2517 23.4657 28.0123 24.2348 27.8079 24.7495C27.5393 25.4318 27.224 25.9176 26.7101 26.4265C26.1962 26.9354 25.7057 27.2534 25.0166 27.5137C24.4969 27.7103 23.7202 27.9532 22.2837 28.0168C20.7304 28.0862 20.269 28.1035 16.339 28.1035C12.409 28.1035 11.9476 28.0862 10.3943 28.0168C8.95778 27.9532 8.18112 27.7161 7.6614 27.5137C6.97233 27.2477 6.4818 26.9354 5.96792 26.4265C5.45404 25.9176 5.13286 25.4318 4.87008 24.7495C4.67154 24.2348 4.42628 23.4657 4.36204 22.0431C4.29197 20.5048 4.27445 20.048 4.27445 16.1561C4.27445 12.2642 4.29197 11.8074 4.36204 10.2691C4.42628 8.84655 4.6657 8.07742 4.87008 7.56275C5.1387 6.88037 5.45404 6.39461 5.96792 5.88571C6.4818 5.37682 6.97233 5.05876 7.6614 4.79853C8.18112 4.60191 8.95778 4.35903 10.3943 4.29542C11.9476 4.22024 12.409 4.20868 16.339 4.20868ZM16.339 1.58325C12.3447 1.58325 11.8425 1.6006 10.2717 1.67C8.70668 1.73939 7.63804 1.98805 6.70371 2.34659C5.73434 2.7167 4.9168 3.21981 4.09926 4.02941C3.28172 4.83901 2.77952 5.6544 2.39994 6.60857C2.03789 7.53383 1.78679 8.5921 1.71671 10.1477C1.64664 11.6975 1.62912 12.1948 1.62912 16.1503C1.62912 20.1058 1.64664 20.6031 1.71671 22.1587C1.78679 23.7085 2.03789 24.7668 2.39994 25.6979C2.77368 26.6578 3.28172 27.4674 4.09926 28.277C4.9168 29.0866 5.74018 29.5839 6.70371 29.9598C7.63804 30.3184 8.70668 30.567 10.2775 30.6364C11.8484 30.7058 12.3447 30.7232 16.3448 30.7232C20.3449 30.7232 20.8413 30.7058 22.4122 30.6364C23.9772 30.567 25.0458 30.3184 25.986 29.9598C26.9553 29.5897 27.7729 29.0866 28.5904 28.277C29.408 27.4674 29.9102 26.652 30.2897 25.6979C30.6518 24.7726 30.9029 23.7143 30.973 22.1587C31.043 20.6031 31.0606 20.1116 31.0606 16.1503C31.0606 12.189 31.043 11.6975 30.973 10.1419C30.9029 8.5921 30.6518 7.53383 30.2897 6.60279C29.916 5.64283 29.408 4.83323 28.5904 4.02363C27.7729 3.21402 26.9495 2.7167 25.986 2.34081C25.0516 1.98227 23.983 1.73361 22.4122 1.66421C20.8355 1.6006 20.3333 1.58325 16.339 1.58325ZM16.339 8.66728C12.1695 8.66728 8.7826 12.0156 8.7826 16.1503C8.7826 20.2851 12.1695 23.6334 16.339 23.6334C20.5085 23.6334 23.8954 20.2793 23.8954 16.1503C23.8954 12.0213 20.5085 8.66728 16.339 8.66728ZM16.339 21.0079C13.6294 21.0079 11.4338 18.8336 11.4338 16.1503C11.4338 13.4671 13.6294 11.2927 16.339 11.2927C19.0486 11.2927 21.2442 13.4671 21.2442 16.1503C21.2442 18.8336 19.0486 21.0079 16.339 21.0079ZM25.9564 8.37234C25.9564 9.33687 25.1668 10.1188 24.1928 10.1188C23.2188 10.1188 22.4293 9.33687 22.4293 8.37234C22.4293 7.40782 23.2188 6.62592 24.1928 6.62592C25.1668 6.62592 25.9564 7.40782 25.9564 8.37234Z" fill="#9093A6"/>
</svg>
