<svg width="33" height="33" viewBox="0 0 33 33" fill="none" xmlns="http://www.w3.org/2000/svg">
<path d="M30.1625 6.9038C29.1621 7.39018 28.0887 7.72004 26.9608 7.8673C28.1124 7.11066 28.9939 5.91052 29.4117 4.48485C28.3315 5.18555 27.1392 5.69435 25.8687 5.97016C24.8513 4.77933 23.4042 4.0376 21.7991 4.0376C18.7198 4.0376 16.2231 6.7771 16.2231 10.1539C16.2231 10.6329 16.2723 11.1006 16.3675 11.5479C11.7341 11.2926 7.62548 8.85688 4.87566 5.15573C4.39498 6.05773 4.12153 7.10876 4.12153 8.23069C4.12153 10.3534 5.10665 12.2263 6.60132 13.322C5.68753 13.2885 4.8281 13.0127 4.0757 12.5542V12.6306C4.0757 15.5938 5.99837 18.0668 8.54775 18.6296C8.08066 18.7675 7.58813 18.8439 7.07858 18.8439C6.71852 18.8439 6.37033 18.8048 6.02893 18.7302C6.73887 21.1622 8.79744 22.9308 11.2365 22.9793C9.32906 24.6192 6.92402 25.5939 4.3118 25.5939C3.86172 25.5939 3.41839 25.5641 2.9819 25.51C5.44979 27.2488 8.37965 28.2626 11.5286 28.2626C21.7856 28.2626 27.3923 18.9408 27.3923 10.8565L27.3736 10.0645C28.4691 9.2072 29.4168 8.13006 30.1625 6.9038Z" fill="#9093A6"/>
</svg>
